<?xml version="1.0" encoding="utf-8"?>
<!-- Generator: Adobe Illustrator 15.0.0, SVG Export Plug-In . SVG Version: 6.00 Build 0)  -->
<!DOCTYPE svg PUBLIC "-//W3C//DTD SVG 1.1//EN" "http://www.w3.org/Graphics/SVG/1.1/DTD/svg11.dtd">
<svg version="1.1" id="Layer_1" xmlns="http://www.w3.org/2000/svg" xmlns:xlink="http://www.w3.org/1999/xlink" x="0px" y="0px"
	 width="595.28px" height="841.89px" viewBox="0 0 595.28 841.89" enable-background="new 0 0 595.28 841.89" xml:space="preserve">
<g>
	<path fill="#7B584F" d="M332.271,323.033c-19.545,13.153-4.511,52.624-4.511,52.624c18.515-57.77,43.605-7.895,33.828-19.545
		c-9.771-11.653-21.801,23.217-21.801,23.217c-11.274-0.078,10.903,150.439,10.903,150.439h-48.866
		c17.664-11.274,13.53-28.943,13.53-28.943s0.376-29.691-10.898-59.009c-11.279-29.317-24.06-28.196-24.06-28.196
		c16.165-9.019,31.197,24.438,31.197,24.438s-1.124-24.06-1.124-29.697c0-5.64,3.008-21.804-10.9-47.982
		c-13.912-26.181-34.207-20.987-34.207-20.987c19.543-16.34,42.85,14.639,42.85,14.639
		C307.463,332.401,332.271,323.033,332.271,323.033"/>
	<path fill="#91A93E" d="M284.694,315.754c0,6.858-11.737,20.87-11.737,20.87s-11.729-14.012-11.729-20.87
		c0-6.864,11.729-20.511,11.729-20.511S284.694,308.891,284.694,315.754z"/>
	<path fill="#91A93E" d="M248.858,321.402c6.558,2.013,16.505,17.346,16.505,17.346s-16.842,7.101-23.402,5.085
		c-6.557-2.019-16.156-17.243-16.156-17.243S242.302,319.387,248.858,321.402z"/>
	<path fill="#91A93E" d="M338.037,305.551c0,6.864-11.731,20.875-11.731,20.875s-11.734-14.012-11.734-20.875
		c0-6.858,11.734-20.506,11.734-20.506S338.037,298.692,338.037,305.551z"/>
	<path fill="#91A93E" d="M353.529,328.891c-6.532,2.094-23.46-4.801-23.46-4.801s9.758-15.45,16.293-17.547
		c6.531-2.096,23.111,4.91,23.111,4.91S360.062,326.794,353.529,328.891z"/>
	<path fill="#91A93E" d="M264.98,430.763c-6.534,2.099-23.457-4.798-23.457-4.798s9.76-15.453,16.292-17.55
		c6.531-2.097,23.111,4.909,23.111,4.909S271.516,428.669,264.98,430.763z"/>
	<path fill="#91A93E" d="M360.929,415.984c-4.731,4.968-22.892,7.032-22.892,7.032s1.154-18.239,5.886-23.209
		c4.73-4.974,22.635-6.772,22.635-6.772S365.654,411.008,360.929,415.984z"/>
</g>
</svg>
